<svg width="36" height="40" viewBox="0 0 36 40" fill="none" xmlns="http://www.w3.org/2000/svg">
<g id="_01_align_center">
<path id="Vector" d="M25.3033 6.77879C23.3057 5.08582 21.2481 3.32957 19.1657 1.25379L17.9788 0.0751953L16.8135 1.25543C13.0647 5.01426 11.2935 10.7857 10.5245 14.2482C9.9358 13.3357 9.49901 12.3339 9.23104 11.2818L8.5269 8.5634L6.4794 10.4878C2.8919 13.8553 0.499789 17.1963 0.499789 22.5464C0.430883 30.4866 5.77229 37.4557 13.4575 39.4528C14.5829 39.7265 15.7317 39.8937 16.8884 39.9521C17.2684 39.9796 18.3566 40.0071 18.5431 39.9954C27.9716 39.7118 35.4656 31.9825 35.4577 22.5497C35.4577 15.4018 30.7517 11.4065 25.3033 6.77879ZM18.3012 36.6446C18.1269 36.6596 17.9685 36.6612 17.7921 36.6596C14.6793 36.5644 12.2031 34.0175 12.1955 30.9032C12.1955 28.7937 13.3268 27.7422 15.8872 25.5629C16.5327 25.0139 17.2348 24.4166 17.9735 23.7328C18.6206 24.32 19.2495 24.8525 19.8301 25.3465C22.4021 27.5293 23.7447 28.7687 23.7447 30.8982C23.7389 33.9532 21.3514 36.4736 18.3012 36.6446ZM26.6528 33.6982L26.6196 33.7214C26.9181 32.8118 27.0709 31.8606 27.0721 30.9032C27.0721 27.135 24.5998 25.0354 21.9846 22.8143C21.0579 22.0291 20.1013 21.2172 19.1464 20.2622L17.9685 19.086L16.7922 20.2622C15.7142 21.3386 14.6594 22.237 13.7294 23.0289C11.1207 25.2483 8.86643 27.1665 8.86643 30.9032C8.86995 31.9017 9.03862 32.8928 9.36557 33.8362C5.8551 31.1406 3.8062 26.9592 3.82721 22.5332C3.79987 19.6138 4.92979 16.8023 6.96987 14.7139C7.32127 15.4268 7.73784 16.1057 8.21432 16.7419C8.92549 17.7016 10.139 18.1468 11.3021 17.8749C12.4846 17.6116 13.4039 16.6813 13.6529 15.4958C14.3496 11.6721 15.8562 8.04168 18.0717 4.84824C19.8268 6.51191 21.5654 7.98426 23.1342 9.31691C28.3449 13.7423 32.1181 16.9399 32.1181 22.5432C32.1264 26.9086 30.1065 31.0301 26.6513 33.6982H26.6528Z" fill="white"/>
</g>
</svg>
