<svg width="40" height="40" viewBox="0 0 40 40" fill="none" xmlns="http://www.w3.org/2000/svg">
<g id="fi-rs-asterik" clip-path="url(#clip0_67_495)">
<path id="Vector" d="M26.6663 40H13.3329V31.8333L6.90961 35.8333L0.0129395 24.7583L7.65461 20L0.0129395 15.2417L6.90961 4.16667L13.3329 8.16667V0H26.6663V8.16667L33.0896 4.16667L39.9863 15.2467L32.3446 20L39.9863 24.7583L33.0896 35.8333L26.6663 31.8333V40ZM16.6663 36.6667H23.3329V25.8333L32.0213 31.245L35.3963 25.8333L26.0396 20L35.3963 14.1667L32.0213 8.75333L23.3329 14.1667V3.33333H16.6663V14.1667L7.97794 8.75333L4.60294 14.1667L13.9596 20L4.60294 25.8333L7.97794 31.2533L16.6663 25.8333V36.6667Z" fill="white"/>
</g>
<defs>
<clipPath id="clip0_67_495">
<rect width="40" height="40" fill="white"/>
</clipPath>
</defs>
</svg>
