<svg width="34" height="40" viewBox="0 0 34 40" fill="none" xmlns="http://www.w3.org/2000/svg">
<g id="01 align center">
<path id="Vector" d="M16.9136 40.0159L16.3236 39.7542C15.6669 39.4659 0.333557 32.5409 0.333557 20.0009V9.12754C0.334142 8.08115 0.664863 7.06163 1.27862 6.21416C1.89238 5.36668 2.75789 4.73446 3.75189 4.40754L17.0002 0.0158691L30.2486 4.40754C31.2426 4.73446 32.1081 5.36668 32.7218 6.21416C33.3356 7.06163 33.6663 8.08115 33.6669 9.12754V20.0009C33.6669 34.2959 18.1869 39.5925 17.5269 39.8125L16.9136 40.0159ZM17.0002 3.51087L4.80689 7.5542C4.47513 7.66256 4.18617 7.87313 3.9814 8.15574C3.77662 8.43836 3.66653 8.77853 3.66689 9.12754V20.0009C3.66689 29.1575 14.4002 35.0975 17.0786 36.4359C19.7519 35.3609 30.3336 30.4392 30.3336 20.0009V9.12754C30.3339 8.77853 30.2238 8.43836 30.0191 8.15574C29.8143 7.87313 29.5253 7.66256 29.1936 7.5542L17.0002 3.51087Z" fill="white"/>
<path id="Vector_2" d="M15.5187 24.2366H15.4637C15.0419 24.2301 14.6257 24.1382 14.2404 23.9663C13.8551 23.7944 13.5087 23.5462 13.2221 23.2366L9.37872 19.2366L11.7804 16.9333L15.5204 20.8333L24.1554 12.1982L26.512 14.5549L17.7437 23.3233C17.4517 23.6151 17.1046 23.846 16.7227 24.0028C16.3408 24.1596 15.9316 24.2391 15.5187 24.2366Z" fill="white"/>
</g>
</svg>
