<svg width="24" height="25" viewBox="0 0 24 25" fill="none" xmlns="http://www.w3.org/2000/svg">
<rect y="0.5" width="24" height="24" rx="4" fill="white"/>
<g clip-path="url(#clip0_67_625)">
<path d="M12.3333 7.79424C13.7582 7.79424 13.9255 7.80059 14.4887 7.82599C15.0095 7.84928 15.2911 7.93609 15.4796 8.01019C15.7294 8.10759 15.9072 8.22192 16.0936 8.40824C16.2799 8.59455 16.3963 8.7724 16.4916 9.02224C16.5636 9.21067 16.6525 9.49226 16.6758 10.0131C16.7012 10.5763 16.7076 10.7436 16.7076 12.1685C16.7076 13.5934 16.7012 13.7606 16.6758 14.3238C16.6525 14.8447 16.5657 15.1262 16.4916 15.3147C16.3942 15.5645 16.2799 15.7424 16.0936 15.9287C15.9072 16.115 15.7294 16.2314 15.4796 16.3267C15.2911 16.3987 15.0095 16.4876 14.4887 16.5109C13.9255 16.5363 13.7582 16.5427 12.3333 16.5427C10.9084 16.5427 10.7412 16.5363 10.178 16.5109C9.65714 16.4876 9.37555 16.4008 9.18711 16.3267C8.93728 16.2293 8.75943 16.115 8.57311 15.9287C8.38679 15.7424 8.27035 15.5645 8.17507 15.3147C8.10308 15.1262 8.01416 14.8447 7.99087 14.3238C7.96546 13.7606 7.95911 13.5934 7.95911 12.1685C7.95911 10.7436 7.96546 10.5763 7.99087 10.0131C8.01416 9.49226 8.10097 9.21067 8.17507 9.02224C8.27246 8.7724 8.38679 8.59455 8.57311 8.40824C8.75943 8.22192 8.93728 8.10547 9.18711 8.01019C9.37555 7.93821 9.65714 7.84928 10.178 7.82599C10.7412 7.79847 10.9105 7.79424 12.3333 7.79424ZM12.3333 6.83301C10.8851 6.83301 10.7031 6.83936 10.1335 6.86477C9.5661 6.89017 9.17864 6.98121 8.83988 7.11248C8.48842 7.24799 8.19201 7.43219 7.89559 7.7286C7.59918 8.02502 7.4171 8.32355 7.27948 8.67289C7.14821 9.01165 7.05717 9.39911 7.03176 9.96864C7.00635 10.5361 7 10.7181 7 12.1663C7 13.6145 7.00635 13.7966 7.03176 14.3662C7.05717 14.9336 7.14821 15.321 7.27948 15.6619C7.41498 16.0134 7.59918 16.3098 7.89559 16.6062C8.19201 16.9026 8.49054 17.0847 8.83988 17.2223C9.17864 17.3536 9.5661 17.4446 10.1356 17.47C10.7052 17.4954 10.8851 17.5018 12.3355 17.5018C13.7858 17.5018 13.9657 17.4954 14.5353 17.47C15.1027 17.4446 15.4901 17.3536 15.831 17.2223C16.1825 17.0868 16.4789 16.9026 16.7753 16.6062C17.0717 16.3098 17.2538 16.0113 17.3914 15.6619C17.5227 15.3231 17.6137 14.9357 17.6391 14.3662C17.6646 13.7966 17.6709 13.6167 17.6709 12.1663C17.6709 10.716 17.6646 10.5361 17.6391 9.96653C17.6137 9.39911 17.5227 9.01165 17.3914 8.67077C17.2559 8.31931 17.0717 8.0229 16.7753 7.72648C16.4789 7.43007 16.1804 7.24799 15.831 7.11037C15.4923 6.9791 15.1048 6.88806 14.5353 6.86265C13.9636 6.83936 13.7815 6.83301 12.3333 6.83301Z" fill="#005E15"/>
<path d="M12.3333 9.42871C10.8216 9.42871 9.59363 10.6546 9.59363 12.1684C9.59363 13.6822 10.8195 14.9081 12.3333 14.9081C13.8472 14.9081 15.0731 13.6822 15.0731 12.1684C15.0731 10.6546 13.8472 9.42871 12.3333 9.42871ZM12.3333 13.9448C11.3509 13.9448 10.5549 13.1487 10.5549 12.1663C10.5549 11.1839 11.3509 10.3878 12.3333 10.3878C13.3157 10.3878 14.1118 11.1839 14.1118 12.1663C14.1118 13.1487 13.3157 13.9448 12.3333 13.9448Z" fill="#005E15"/>
<path d="M15.181 9.95801C15.5342 9.95801 15.8204 9.67174 15.8204 9.31861C15.8204 8.96547 15.5342 8.6792 15.181 8.6792C14.8279 8.6792 14.5416 8.96547 14.5416 9.31861C14.5416 9.67174 14.8279 9.95801 15.181 9.95801Z" fill="#005E15"/>
</g>
<defs>
<clipPath id="clip0_67_625">
<rect width="10.6667" height="10.6667" fill="white" transform="translate(7 6.83301)"/>
</clipPath>
</defs>
</svg>
