<svg width="24" height="25" viewBox="0 0 24 25" fill="none" xmlns="http://www.w3.org/2000/svg">
<rect y="0.5" width="24" height="24" rx="4" fill="white"/>
<g clip-path="url(#clip0_67_627)">
<path d="M16.2452 8.38119C15.4031 7.9948 14.5001 7.71012 13.5559 7.54707C13.5387 7.54392 13.5215 7.55179 13.5127 7.56752C13.3965 7.77408 13.2679 8.04355 13.1778 8.25536C12.1623 8.10332 11.152 8.10332 10.1573 8.25536C10.0672 8.03884 9.93384 7.77408 9.81718 7.56752C9.80832 7.55231 9.79114 7.54445 9.77395 7.54707C8.83029 7.7096 7.92726 7.99428 7.08463 8.38119C7.07733 8.38434 7.07108 8.38959 7.06693 8.3964C5.35406 10.9554 4.88484 13.4515 5.11502 15.9166C5.11607 15.9287 5.12284 15.9402 5.13221 15.9475C6.26231 16.7775 7.35701 17.2813 8.43137 17.6152C8.44857 17.6205 8.46679 17.6142 8.47773 17.6C8.73187 17.253 8.95841 16.887 9.15265 16.5022C9.16412 16.4797 9.15317 16.4529 9.12975 16.444C8.77041 16.3077 8.42825 16.1415 8.09911 15.9528C8.07308 15.9376 8.07099 15.9003 8.09494 15.8825C8.1642 15.8306 8.23349 15.7766 8.29962 15.7221C8.31159 15.7121 8.32826 15.71 8.34233 15.7163C10.5046 16.7035 12.8455 16.7035 14.9823 15.7163C14.9964 15.7095 15.013 15.7116 15.0255 15.7216C15.0917 15.7761 15.1609 15.8306 15.2307 15.8825C15.2547 15.9003 15.2531 15.9376 15.2271 15.9528C14.8979 16.1452 14.5558 16.3077 14.1959 16.4435C14.1725 16.4524 14.1621 16.4797 14.1735 16.5022C14.372 16.8865 14.5985 17.2524 14.8479 17.5995C14.8584 17.6142 14.8771 17.6205 14.8943 17.6152C15.9739 17.2813 17.0686 16.7775 18.1987 15.9475C18.2086 15.9402 18.2148 15.9292 18.2159 15.9171C18.4913 13.0672 17.7544 10.5915 16.2624 8.39692C16.2587 8.38959 16.2525 8.38434 16.2452 8.38119ZM9.47556 14.4156C8.82456 14.4156 8.28816 13.8179 8.28816 13.0839C8.28816 12.35 8.81416 11.7523 9.47556 11.7523C10.1421 11.7523 10.6734 12.3552 10.6629 13.0839C10.6629 13.8179 10.1369 14.4156 9.47556 14.4156ZM13.8658 14.4156C13.2148 14.4156 12.6784 13.8179 12.6784 13.0839C12.6784 12.35 13.2044 11.7523 13.8658 11.7523C14.5324 11.7523 15.0635 12.3552 15.0531 13.0839C15.0531 13.8179 14.5324 14.4156 13.8658 14.4156Z" fill="#005E15"/>
</g>
<defs>
<clipPath id="clip0_67_627">
<rect width="13.3333" height="13.3333" fill="white" transform="translate(5 5.5)"/>
</clipPath>
</defs>
</svg>
