<svg width="24" height="25" viewBox="0 0 24 25" fill="none" xmlns="http://www.w3.org/2000/svg">
<rect y="0.5" width="24" height="24" rx="2" fill="white"/>
<path d="M16.5286 10.0906C16.5332 10.1962 16.5332 10.297 16.5332 10.4026C16.5378 13.6042 14.1856 17.3002 9.88396 17.3002C8.61524 17.3002 7.36967 16.921 6.30005 16.2106C6.48526 16.2346 6.67048 16.2442 6.85569 16.2442C7.90679 16.2442 8.93011 15.8794 9.75894 15.2026C8.75878 15.1834 7.87901 14.5066 7.5734 13.5178C7.92531 13.5898 8.28648 13.5754 8.62913 13.4746C7.54099 13.2538 6.75846 12.2602 6.75383 11.1034C6.75383 11.0938 6.75383 11.0842 6.75383 11.0746C7.07795 11.2618 7.44375 11.3674 7.81418 11.377C6.79087 10.6666 6.47137 9.25057 7.09184 8.14177C8.28185 9.65857 10.0321 10.5754 11.9121 10.6762C11.7222 9.83617 11.9815 8.95297 12.5881 8.35777C13.5281 7.44096 15.0098 7.48896 15.8988 8.46337C16.4221 8.35777 16.9268 8.15617 17.3852 7.87297C17.2092 8.43457 16.8434 8.90977 16.3572 9.21217C16.8203 9.15457 17.2741 9.02497 17.7 8.83297C17.3852 9.32257 16.987 9.74497 16.5286 10.0906Z" fill="#005E15"/>
</svg>
