<svg width="40" height="40" viewBox="0 0 40 40" fill="none" xmlns="http://www.w3.org/2000/svg">
<g id="fi-rs-rocket" clip-path="url(#clip0_67_500)">
<path id="Vector" d="M30 11.6677C30 11.9973 29.9023 12.3196 29.7191 12.5936C29.536 12.8677 29.2757 13.0813 28.9711 13.2075C28.6666 13.3336 28.3315 13.3666 28.0082 13.3023C27.6849 13.238 27.3879 13.0793 27.1548 12.8462C26.9217 12.6131 26.763 12.3161 26.6987 11.9928C26.6344 11.6695 26.6674 11.3344 26.7935 11.0299C26.9197 10.7253 27.1333 10.465 27.4074 10.2819C27.6815 10.0988 28.0037 10.001 28.3333 10.001C28.7754 10.001 29.1993 10.1766 29.5119 10.4892C29.8244 10.8017 30 11.2257 30 11.6677ZM23.3333 15.001C23.0037 15.001 22.6815 15.0988 22.4074 15.2819C22.1333 15.465 21.9197 15.7253 21.7935 16.0299C21.6674 16.3344 21.6344 16.6695 21.6987 16.9928C21.763 17.3161 21.9217 17.6131 22.1548 17.8462C22.3879 18.0793 22.6849 18.238 23.0082 18.3023C23.3315 18.3666 23.6666 18.3336 23.9711 18.2075C24.2757 18.0813 24.536 17.8677 24.7191 17.5936C24.9023 17.3196 25 16.9973 25 16.6677C25 16.2257 24.8244 15.8017 24.5118 15.4892C24.1993 15.1766 23.7754 15.001 23.3333 15.001ZM18.3333 20.001C18.0037 20.001 17.6815 20.0988 17.4074 20.2819C17.1333 20.465 16.9197 20.7253 16.7935 21.0299C16.6674 21.3344 16.6344 21.6695 16.6987 21.9928C16.763 22.3161 16.9217 22.6131 17.1548 22.8462C17.3879 23.0793 17.6849 23.238 18.0082 23.3023C18.3315 23.3666 18.6666 23.3336 18.9711 23.2075C19.2757 23.0814 19.536 22.8677 19.7191 22.5936C19.9023 22.3196 20 21.9973 20 21.6677C20 21.2257 19.8244 20.8017 19.5118 20.4892C19.1993 20.1766 18.7754 20.001 18.3333 20.001ZM38.92 1.08103C39.4167 1.57318 39.7616 2.19772 39.9134 2.88028C40.0653 3.56285 40.0178 4.27468 39.7767 4.93103L39.6517 5.28269C37.1483 12.2294 34.7467 18.8344 30 24.701V25.001C29.9927 27.8459 29.3268 30.6504 28.0545 33.195C26.7823 35.7395 24.9382 37.9549 22.6667 39.6677L22.22 40.001H15V34.0244L11.6667 30.691L7.845 34.5127L5.48833 32.156L9.31 28.3344L5.97667 25.001H0V17.401L0.333333 16.9577C2.06323 14.7314 4.29146 12.9422 6.8388 11.734C9.38614 10.5257 12.1815 9.93216 15 10.001H15.3C21.1667 5.25603 27.7667 2.85436 34.71 0.352693L35.07 0.22436C35.7264 -0.0168174 36.4382 -0.0642933 37.1207 0.0875844C37.8033 0.239462 38.4278 0.584295 38.92 1.08103ZM3.33333 21.6677H5.69833C7.3279 18.8566 9.21429 16.2025 11.3333 13.7394C8.20199 14.3871 5.38223 16.076 3.33333 18.531V21.6677ZM26.1667 28.7577C23.7291 30.8397 21.1072 32.6957 18.3333 34.3027V36.6677H21.095C23.5845 34.6381 25.3612 31.867 26.1667 28.7577ZM36.5617 3.43936C36.5173 3.38996 36.4585 3.35569 36.3937 3.34134C36.3288 3.327 36.2611 3.3333 36.2 3.35936L35.8417 3.48936C27.7683 6.39769 20.7967 8.91103 14.7933 14.9127C12.4781 17.3917 10.4508 20.1246 8.75 23.0594L16.9417 31.2527C19.8759 29.5504 22.6087 27.5226 25.0883 25.2077C31.0883 19.2077 33.605 12.2294 36.515 4.15269L36.6417 3.80103C36.6675 3.73989 36.6737 3.67224 36.6593 3.60744C36.645 3.54264 36.6109 3.48391 36.5617 3.43936Z" fill="white"/>
</g>
<defs>
<clipPath id="clip0_67_500">
<rect width="40" height="40" fill="white"/>
</clipPath>
</defs>
</svg>
