<svg width="40" height="40" viewBox="0 0 40 40" fill="none" xmlns="http://www.w3.org/2000/svg">
<g id="fi-rs-diamond" clip-path="url(#clip0_67_511)">
<path id="Vector" d="M38.9322 16.3333C39.5972 15.4809 39.9696 14.4368 39.9942 13.356C40.0189 12.2751 39.6944 11.2151 39.0689 10.3333L33.1839 2.095C32.7214 1.4472 32.111 0.919153 31.4034 0.554768C30.6958 0.190383 29.9115 0.000188561 29.1155 0L10.8855 0C10.0896 0.000188561 9.30525 0.190383 8.59764 0.554768C7.89003 0.919153 7.27963 1.4472 6.8172 2.095L0.932204 10.3333C0.307942 11.2159 -0.0153866 12.2761 0.0101302 13.3568C0.0356471 14.4375 0.408652 15.4812 1.07387 16.3333L20.0005 40.18L38.9322 16.3333ZM12.0889 15L16.7555 30.72L4.27054 15H12.0889ZM35.7305 15L23.2539 30.72L27.9122 15H35.7305ZM24.4355 15L20.0005 29.965L15.5655 15H24.4355ZM15.5439 11.6667L17.9239 3.33333H22.0772L24.4572 11.6667H15.5439ZM30.4722 4.03167L35.9255 11.6667H27.9255L25.5439 3.33333H29.1155C29.3809 3.33331 29.6425 3.39666 29.8785 3.51813C30.1145 3.63959 30.318 3.81566 30.4722 4.03167ZM9.52887 4.03167C9.68307 3.81566 9.88662 3.63959 10.1226 3.51813C10.3586 3.39666 10.6201 3.33331 10.8855 3.33333H14.4572L12.0772 11.6667H4.0772L9.52887 4.03167Z" fill="white"/>
</g>
<defs>
<clipPath id="clip0_67_511">
<rect width="40" height="40" fill="white"/>
</clipPath>
</defs>
</svg>
